<svg class="svg-icon" style="width: 1em; height: 1em;vertical-align: middle;fill: currentColor;overflow: hidden;" viewBox="0 0 1024 1024" version="1.1" xmlns="http://www.w3.org/2000/svg"><path d="M821.30030707 494.49398045c3.59807545-36.53430272-4.29001273-73.34538013-22.83393821-105.03612075 6.22743779-15.77617635 10.10228793-32.24428999 11.6245504-49.12756509 8.44163755-88.84478179-48.98917831-167.03372402-128.00844686-174.50665074-14.80746325-1.38387456-29.89170233-0.13838791-44.28400298 3.59807546-21.45006365-30.0300891-54.52467883-49.8195035-91.19736832-54.52467883-36.67269063-4.70517533-73.62215481 6.22743779-101.8532079 30.03009024-5.12033792-1.24548779-10.37906375-2.07581298-15.49940053-2.62936349-79.84959261-7.74970027-151.53432349 58.39952896-159.28402375 147.52108544-0.41516259 6.7809883-0.41516259 13.70036338 0 20.48135168-42.20819001 28.64621454-69.19375531 74.72925582-73.34538013 125.51747129-7.33453767 76.52829298 34.32010297 144.75333518 96.59448207 167.44888661-1.38387456 114.30808349 39.71721557 213.25515207 103.51385713 260.30690646l8.02647495 5.53550052 8.02647609 4.84356209 7.74970027 4.01323805h1.38387456l7.47292558 3.32130076 2.35258766 0.96871196 6.7809883 2.49097558 3.45968754 1.10709988 5.95066312 1.66065038 5.12033792 1.10709987 4.56678741 0.96871197 9.96390115 1.3838757h20.06618909l7.74970027 0.83032518h3.59807544l7.1961509-1.10709987h2.35258766l7.88808818-1.93742507h1.52226247l8.44163755-2.49097557h0.83032519l8.85680014-3.32130077 8.99518919-4.0132369c71.54634297-34.18171506 130.22264661-124.41037141 150.15044779-236.36586724 65.31890403-10.37906375 119.01325881-69.88569259 126.20940857-146.55237234" fill="#54751B" /><path d="M658.00304641 594.96331264c0 163.57403648-85.52348103 295.59572025-191.11315115 295.59572025-105.45128221 0-191.11315115-131.60652231-191.11315114-295.59572025S361.30022515 299.36759125 466.88989526 299.36759125c105.45128221 0 191.11315115 132.57523427 191.11315115 295.59572139" fill="#7CAD27" /><path d="M442.94885604 481.07039175c0 85.52348103-60.47534194 155.54756039-135.34298453 155.54756039-74.86764259 0-135.20459662-70.16246727-135.20459662-155.54756039s60.47534194-155.54756039 135.34298453-155.54756153c74.86764259 0 135.34298453 69.33214208 135.34298454 155.54756153" fill="#7CAD27" /><path d="M499.13418526 335.34834347c0 85.52348103-60.47534194 155.54756039-135.34298454 155.54756152-74.86764259 0-135.34298453-69.33214208-135.34298453-155.54756152 0-86.21541831 60.47534194-155.54756039 135.34298453-155.5475604 74.72925582 0 135.34298453 69.33214208 135.34298454 155.5475604" fill="#7CAD27" /><path d="M602.2328798 298.95242866c0 85.52348103-60.47534194 155.54756039-135.34298454 155.54756153-74.86764259 0-135.34298453-69.33214208-135.34298453-155.54756153 0-86.21541831 60.47534194-155.54756039 135.34298453-155.54756039 74.86764259 0 135.34298453 69.33214208 135.34298454 155.54756039" fill="#7CAD27" /><path d="M737.57586433 335.34834347c0 85.52348103-60.47534194 155.54756039-135.34298453 155.54756152-74.86764259 0-135.34298453-69.33214208-135.34298454-155.54756152 0-86.21541831 60.47534194-155.54756039 135.34298454-155.5475604 74.86764259 0 135.34298453 69.33214208 135.34298453 155.5475604" fill="#7CAD27" /><path d="M761.37851564 481.07039175c0 85.52348103-60.47534194 155.54756039-135.34298454 155.54756039-74.86764259 0-135.34298453-69.33214208-135.34298453-155.54756039 0-86.21541831 60.47534194-155.54756039 135.34298453-155.54756153 74.86764259 0 135.34298453 69.47052999 135.34298454 155.54756153" fill="#7CAD27" /><path d="M466.88989526 890.97419549c24.77136441-0.27677469 48.98917831-7.33453767 69.88569259-20.48135168-21.17328896-95.90254478-69.88569259-323.96516011-69.88569259-416.68479204 0 93.41156921-48.71240363 321.47418567-69.88569258 416.68479204 21.03490105 13.14681287 45.11432818 20.20457586 69.88569258 20.48135168" fill="#FCFCFC" /><path d="M450.5601684 600.36042525L424.12815475 517.60469447l17.71360142 133.12878364 8.71841223-50.37305286z m-22.41877561 118.32132038l-26.43201479-82.75573077 17.71360142 133.12878479 8.71841337-50.37305402z m55.0782282-116.10712064l26.43201479-82.75573077-17.71360142 133.12878479-8.71841337-50.37305402z m22.41877675 118.45970831l26.43201478-82.75573077-17.71360142 133.12878478-8.71841336-50.37305401z m0 0" fill="#DCDCDC" /></svg>